<?xml version="1.0" encoding="utf-8"?>
<!-- Generator: Adobe Illustrator 18.0.0, SVG Export Plug-In . SVG Version: 6.00 Build 0)  -->
<!DOCTYPE svg PUBLIC "-//W3C//DTD SVG 1.1//EN" "http://www.w3.org/Graphics/SVG/1.1/DTD/svg11.dtd">
<svg version="1.1" id="Layer_1" xmlns="http://www.w3.org/2000/svg" xmlns:xlink="http://www.w3.org/1999/xlink" x="0px" y="0px"
	 viewBox="0 0 145 81" enable-background="new 0 0 145 81" xml:space="preserve">
<path fill="none" d="z"/>
<g>
	<g>
		<defs>
			<path id="SVGID_1_" d="M101.4,63.4C94.7,71.7,84.5,77,73,77c-11.5,0-21.7-5.3-28.4-13.6h-5C47,74,59.2,81,73,81
				c13.8,0,26-7,33.4-17.6H101.4z"/>
		</defs>
		<clipPath id="SVGID_2_">
			<use xlink:href="#SVGID_1_"  overflow="visible"/>
		</clipPath>
		
			<linearGradient id="SVGID_3_" gradientUnits="userSpaceOnUse" x1="-54.7889" y1="112.7918" x2="-54.2329" y2="112.7918" gradientTransform="matrix(119.99 0 0 119.99 6613.7666 -13461.667)">
			<stop  offset="0" style="stop-color:#69C3C4"/>
			<stop  offset="0.1313" style="stop-color:#66BDC0"/>
			<stop  offset="0.3127" style="stop-color:#5EABB5"/>
			<stop  offset="0.5234" style="stop-color:#508EA2"/>
			<stop  offset="0.756" style="stop-color:#3D6589"/>
			<stop  offset="1" style="stop-color:#263269"/>
		</linearGradient>
		<rect x="39.6" y="63.4" clip-path="url(#SVGID_2_)" fill="url(#SVGID_3_)" width="66.7" height="17.6"/>
	</g>
	<g>
		<defs>
			<path id="SVGID_4_" d="M42.8,13.6h5.6C54.8,7.6,63.5,4,73,4s18.2,3.6,24.7,9.6h5.6C95.8,5.3,85,0,73,0S50.2,5.3,42.8,13.6"/>
		</defs>
		<clipPath id="SVGID_5_">
			<use xlink:href="#SVGID_4_"  overflow="visible"/>
		</clipPath>
		
			<linearGradient id="SVGID_6_" gradientUnits="userSpaceOnUse" x1="-54.79" y1="113.2506" x2="-54.234" y2="113.2506" gradientTransform="matrix(108.7439 0 0 108.7439 6000.8545 -12308.5215)">
			<stop  offset="0" style="stop-color:#69C3C4"/>
			<stop  offset="0.1313" style="stop-color:#66BDC0"/>
			<stop  offset="0.3127" style="stop-color:#5EABB5"/>
			<stop  offset="0.5234" style="stop-color:#508EA2"/>
			<stop  offset="0.756" style="stop-color:#3D6589"/>
			<stop  offset="1" style="stop-color:#263269"/>
		</linearGradient>
		<rect x="42.8" y="0" clip-path="url(#SVGID_5_)" fill="url(#SVGID_6_)" width="60.5" height="13.6"/>
	</g>
	<g>
		<defs>
			<rect id="SVGID_7_" x="1.1" width="142.8" height="81"/>
		</defs>
		<clipPath id="SVGID_8_">
			<use xlink:href="#SVGID_7_"  overflow="visible"/>
		</clipPath>
		<path clip-path="url(#SVGID_8_)" fill="#80868E" d="M1.1,30c3.4-1.1,6.9-1.9,10.2-1.9c5,0.1,10,2.8,10,8.7v9.6
			c0,5.7-5,8.8-10.1,8.7c-2.1,0-4.2-0.2-6.1-1.4v10.1h-4V30z M5.1,50c1.9,0.7,4,1.2,6.1,1.2c3-0.1,6.1-1.6,6-4.7v-9.7
			c0.1-3-2.9-4.7-5.9-4.7c-2.1,0-4.3,0.1-6.2,0.6V50z"/>
		<path clip-path="url(#SVGID_8_)" fill="#80868E" d="M38.6,28.5v4.1c-1.9-0.3-2.3-0.5-4-0.1c-2.1,0.6-4,2.1-4,4.5v17.7h-4V37
			c0-4.7,3.3-7.7,7.5-8.5C35.5,28.2,37.1,28.2,38.6,28.5"/>
		<path clip-path="url(#SVGID_8_)" fill="#80868E" d="M82.2,28.4l-5.8,21.9c-0.3,1.2-0.6,1.3-0.9,1.3c-0.3,0-0.6-0.1-0.9-1.3
			l-5.8-21.9h-4.6l6.8,24.1c0.6,1.9,1.9,2.8,4.4,2.8c2.5,0,3.8-0.9,4.4-2.8l6.8-24.1H82.2z"/>
		<path clip-path="url(#SVGID_8_)" fill="#80868E" d="M92.7,19.1c1.6,0,2.8,1.2,2.8,2.8c0,1.6-1.2,2.8-2.8,2.8
			c-1.6,0-2.8-1.3-2.8-2.8C89.9,20.4,91.2,19.1,92.7,19.1"/>
		<rect x="90.8" y="28.4" clip-path="url(#SVGID_8_)" fill="#80868E" width="4" height="26.3"/>
		<path clip-path="url(#SVGID_8_)" fill="#80868E" d="M133.7,32.2c-2.3,0-4.7,1-6.2,2.8l-2.8-2.7c2.4-2.7,6-4.1,9.3-4.1
			c5,0,9.9,2.8,9.9,8.4v16.9c-3.6,1.3-7.3,1.8-10.8,1.8c-5.2-0.1-9.3-3.4-9.3-9c0.1-6.3,5.1-8.4,10.4-8.4c2,0,4,0.6,5.7,1.5v-2.7
			C139.9,33.6,136.8,32.2,133.7,32.2 M139.9,42.8c-1.6-0.6-3.7-1.1-5.9-1.1c-3.3,0-6.2,0.8-6.3,4.5c0,3.3,2.4,5.4,5.4,5.4
			c2.2,0.1,4.5-0.1,6.7-0.5V42.8z"/>
		<path clip-path="url(#SVGID_8_)" fill="#80868E" d="M51.4,28.1c-5,0-10.1,2.8-10.1,8.7v5.3v3.4v1.2c0,5.8,5.1,8.7,10.1,8.7
			c3.8,0,7.8-1.9,9.6-5.8l-3.6-1.8c-1.1,2.4-3.6,3.6-6,3.6c-3.1,0-6.1-1.5-6.1-4.7v-2l16-3.2v-2.2v-1.1v-1.3
			C61.4,30.9,56.3,28.1,51.4,28.1 M45.3,41.3v-0.9h0v-3.6c-0.1-3.2,3-4.7,6.1-4.7c3,0,6.2,1.5,6.2,4.6v2.2L45.3,41.3z"/>
		<path clip-path="url(#SVGID_8_)" fill="#80868E" d="M117.1,28.4l-5.8,21.9c-0.3,1.2-0.6,1.3-0.9,1.3c-0.3,0-0.6-0.1-0.9-1.3
			l-5.8-21.9h-4.6l6.8,24.1c0.6,1.9,1.9,2.8,4.4,2.8s3.8-0.9,4.4-2.8l6.8-24.1H117.1z"/>
	</g>
</g>
</svg>
